<mxfile host="app.diagrams.net" modified="2023-02-06T02:29:57.155Z" agent="5.0 (Windows NT 10.0; Win64; x64) AppleWebKit/537.36 (KHTML, like Gecko) Chrome/103.0.0.0 Safari/537.36" etag="6ZSK1mx9blJCvgyzoPNx" version="20.8.16" type="github">
  <diagram name="第 1 页" id="rQmxQE86B1xZqFmUttJh">
    <mxGraphModel dx="1707" dy="438" grid="1" gridSize="10" guides="1" tooltips="1" connect="1" arrows="1" fold="1" page="1" pageScale="1" pageWidth="827" pageHeight="1169" math="0" shadow="0">
      <root>
        <mxCell id="0" />
        <mxCell id="1" parent="0" />
        <mxCell id="ym7wktP50jxxHTLkkAIN-3" value="" style="edgeStyle=orthogonalEdgeStyle;rounded=0;orthogonalLoop=1;jettySize=auto;html=1;" edge="1" parent="1" source="ym7wktP50jxxHTLkkAIN-1" target="ym7wktP50jxxHTLkkAIN-2">
          <mxGeometry relative="1" as="geometry">
            <Array as="points">
              <mxPoint x="170" y="150" />
              <mxPoint x="170" y="150" />
            </Array>
          </mxGeometry>
        </mxCell>
        <mxCell id="ym7wktP50jxxHTLkkAIN-1" value="外汇资金XMS前中台" style="rounded=1;whiteSpace=wrap;html=1;" vertex="1" parent="1">
          <mxGeometry x="140" y="50" width="120" height="60" as="geometry" />
        </mxCell>
        <mxCell id="ym7wktP50jxxHTLkkAIN-4" style="edgeStyle=orthogonalEdgeStyle;rounded=0;orthogonalLoop=1;jettySize=auto;html=1;exitX=0.75;exitY=0;exitDx=0;exitDy=0;entryX=0.75;entryY=1;entryDx=0;entryDy=0;dashed=1;dashPattern=12 12;fillColor=#fa6800;strokeColor=#C73500;" edge="1" parent="1" source="ym7wktP50jxxHTLkkAIN-2" target="ym7wktP50jxxHTLkkAIN-1">
          <mxGeometry relative="1" as="geometry" />
        </mxCell>
        <mxCell id="ym7wktP50jxxHTLkkAIN-10" value="" style="edgeStyle=orthogonalEdgeStyle;rounded=0;orthogonalLoop=1;jettySize=auto;html=1;" edge="1" parent="1" source="ym7wktP50jxxHTLkkAIN-2" target="ym7wktP50jxxHTLkkAIN-9">
          <mxGeometry relative="1" as="geometry">
            <Array as="points">
              <mxPoint x="200" y="290" />
              <mxPoint x="48" y="290" />
            </Array>
          </mxGeometry>
        </mxCell>
        <mxCell id="ym7wktP50jxxHTLkkAIN-16" style="edgeStyle=orthogonalEdgeStyle;rounded=0;orthogonalLoop=1;jettySize=auto;html=1;exitX=0.75;exitY=1;exitDx=0;exitDy=0;entryX=0.5;entryY=0;entryDx=0;entryDy=0;" edge="1" parent="1" source="ym7wktP50jxxHTLkkAIN-2" target="ym7wktP50jxxHTLkkAIN-14">
          <mxGeometry relative="1" as="geometry">
            <Array as="points">
              <mxPoint x="200" y="250" />
              <mxPoint x="200" y="290" />
              <mxPoint x="268" y="290" />
            </Array>
          </mxGeometry>
        </mxCell>
        <mxCell id="ym7wktP50jxxHTLkkAIN-23" style="edgeStyle=orthogonalEdgeStyle;rounded=0;orthogonalLoop=1;jettySize=auto;html=1;exitX=0.5;exitY=1;exitDx=0;exitDy=0;entryX=0.41;entryY=-0.067;entryDx=0;entryDy=0;entryPerimeter=0;" edge="1" parent="1" source="ym7wktP50jxxHTLkkAIN-2" target="ym7wktP50jxxHTLkkAIN-22">
          <mxGeometry relative="1" as="geometry">
            <mxPoint x="260" y="240" as="sourcePoint" />
            <Array as="points">
              <mxPoint x="200" y="290" />
              <mxPoint x="371" y="290" />
            </Array>
          </mxGeometry>
        </mxCell>
        <mxCell id="ym7wktP50jxxHTLkkAIN-27" style="edgeStyle=orthogonalEdgeStyle;rounded=0;orthogonalLoop=1;jettySize=auto;html=1;exitX=0.5;exitY=1;exitDx=0;exitDy=0;entryX=0.5;entryY=0;entryDx=0;entryDy=0;" edge="1" parent="1" source="ym7wktP50jxxHTLkkAIN-2" target="ym7wktP50jxxHTLkkAIN-13">
          <mxGeometry relative="1" as="geometry" />
        </mxCell>
        <mxCell id="ym7wktP50jxxHTLkkAIN-2" value="外汇资金管理系统FBS后台" style="whiteSpace=wrap;html=1;rounded=1;" vertex="1" parent="1">
          <mxGeometry x="140" y="190" width="120" height="60" as="geometry" />
        </mxCell>
        <mxCell id="ym7wktP50jxxHTLkkAIN-6" style="edgeStyle=orthogonalEdgeStyle;rounded=0;orthogonalLoop=1;jettySize=auto;html=1;exitX=0.5;exitY=0;exitDx=0;exitDy=0;entryX=1;entryY=0.5;entryDx=0;entryDy=0;" edge="1" parent="1" source="ym7wktP50jxxHTLkkAIN-5" target="ym7wktP50jxxHTLkkAIN-1">
          <mxGeometry relative="1" as="geometry" />
        </mxCell>
        <mxCell id="ym7wktP50jxxHTLkkAIN-5" value="代客资金系统（国结、柜面、网银）" style="whiteSpace=wrap;html=1;rounded=1;" vertex="1" parent="1">
          <mxGeometry x="380" y="180" width="120" height="60" as="geometry" />
        </mxCell>
        <mxCell id="ym7wktP50jxxHTLkkAIN-8" value="Comstp交易上行" style="text;strokeColor=none;align=center;fillColor=none;html=1;verticalAlign=middle;whiteSpace=wrap;rounded=0;" vertex="1" parent="1">
          <mxGeometry x="410" y="110" width="60" height="30" as="geometry" />
        </mxCell>
        <mxCell id="ym7wktP50jxxHTLkkAIN-9" value="核心系统" style="whiteSpace=wrap;html=1;rounded=1;" vertex="1" parent="1">
          <mxGeometry x="-2" y="330" width="100" height="30" as="geometry" />
        </mxCell>
        <mxCell id="ym7wktP50jxxHTLkkAIN-13" value="大额支付系统" style="whiteSpace=wrap;html=1;rounded=1;" vertex="1" parent="1">
          <mxGeometry x="108" y="330" width="100" height="30" as="geometry" />
        </mxCell>
        <mxCell id="ym7wktP50jxxHTLkkAIN-20" style="edgeStyle=orthogonalEdgeStyle;rounded=0;orthogonalLoop=1;jettySize=auto;html=1;exitX=0.5;exitY=1;exitDx=0;exitDy=0;entryX=0.5;entryY=0;entryDx=0;entryDy=0;" edge="1" parent="1" source="ym7wktP50jxxHTLkkAIN-14" target="ym7wktP50jxxHTLkkAIN-15">
          <mxGeometry relative="1" as="geometry" />
        </mxCell>
        <mxCell id="ym7wktP50jxxHTLkkAIN-14" value="国结系统" style="whiteSpace=wrap;html=1;rounded=1;" vertex="1" parent="1">
          <mxGeometry x="218" y="330" width="100" height="30" as="geometry" />
        </mxCell>
        <mxCell id="ym7wktP50jxxHTLkkAIN-15" value="SWIFT前置机" style="whiteSpace=wrap;html=1;rounded=1;" vertex="1" parent="1">
          <mxGeometry x="218" y="410" width="100" height="30" as="geometry" />
        </mxCell>
        <mxCell id="ym7wktP50jxxHTLkkAIN-17" value="人民币" style="text;strokeColor=none;align=center;fillColor=none;html=1;verticalAlign=middle;whiteSpace=wrap;rounded=0;" vertex="1" parent="1">
          <mxGeometry x="128" y="290" width="60" height="30" as="geometry" />
        </mxCell>
        <mxCell id="ym7wktP50jxxHTLkkAIN-18" value="外币" style="text;strokeColor=none;align=center;fillColor=none;html=1;verticalAlign=middle;whiteSpace=wrap;rounded=0;" vertex="1" parent="1">
          <mxGeometry x="230" y="290" width="60" height="30" as="geometry" />
        </mxCell>
        <mxCell id="ym7wktP50jxxHTLkkAIN-19" value="账务接口" style="text;strokeColor=none;align=center;fillColor=none;html=1;verticalAlign=middle;whiteSpace=wrap;rounded=0;" vertex="1" parent="1">
          <mxGeometry x="30" y="290" width="60" height="30" as="geometry" />
        </mxCell>
        <mxCell id="ym7wktP50jxxHTLkkAIN-22" value="数据仓库" style="whiteSpace=wrap;html=1;rounded=1;" vertex="1" parent="1">
          <mxGeometry x="330" y="330" width="100" height="30" as="geometry" />
        </mxCell>
        <mxCell id="ym7wktP50jxxHTLkkAIN-24" value="数仓接口" style="text;strokeColor=none;align=center;fillColor=none;html=1;verticalAlign=middle;whiteSpace=wrap;rounded=0;" vertex="1" parent="1">
          <mxGeometry x="340" y="290" width="60" height="30" as="geometry" />
        </mxCell>
        <mxCell id="ym7wktP50jxxHTLkkAIN-30" value="" style="rounded=1;whiteSpace=wrap;html=1;fillColor=none;dashed=1;" vertex="1" parent="1">
          <mxGeometry x="120" y="170" width="420" height="100" as="geometry" />
        </mxCell>
      </root>
    </mxGraphModel>
  </diagram>
</mxfile>
